<svg width="156" height="156" viewBox="0 0 156 156" fill="none" xmlns="http://www.w3.org/2000/svg">
<path d="M78 156C121.078 156 156 121.078 156 78C156 34.9218 121.078 0 78 0C34.9218 0 0 34.9218 0 78C0 121.078 34.9218 156 78 156Z" fill="url(#paint0_linear)"/>
<path d="M82.4115 23.2596C83.7404 23.2596 84.8177 22.1823 84.8177 20.8534C84.8177 19.5245 83.7404 18.4473 82.4115 18.4473C81.0826 18.4473 80.0054 19.5245 80.0054 20.8534C80.0054 22.1823 81.0826 23.2596 82.4115 23.2596Z" fill="url(#paint1_linear)"/>
<path d="M83.3136 142.165L95.6452 138.154C96.1465 137.954 96.4472 137.452 96.2467 136.851L95.8457 135.548L82.5115 139.859C82.0102 140.059 81.7095 140.56 81.91 141.162L82.0102 141.463C82.311 142.064 82.8123 142.365 83.3136 142.165Z" fill="url(#paint2_linear)"/>
<path d="M94.8429 125.722L102.362 115.095C102.663 114.694 102.563 113.992 102.162 113.691L101.059 112.889L92.9381 124.319C92.6373 124.72 92.7376 125.422 93.1386 125.722L93.4393 125.923C93.9406 126.224 94.5422 126.123 94.8429 125.722Z" fill="url(#paint3_linear)"/>
<path d="M89.5296 137.753L96.0463 135.648L88.527 94.0412C88.2262 92.4371 88.0257 90.833 87.8252 89.1286L84.7172 52.1338L69.5784 52.5348L68.6761 83.1132C68.4756 89.6299 73.1877 97.3497 79.5039 103.465L96.7481 118.905L101.059 112.789L82.7121 96.3472C78.3008 92.3369 75.7943 86.522 76.0951 80.5065L76.8972 60.2546H77.8997L80.6067 91.9358C80.7069 92.6376 80.7069 93.2392 80.9074 93.941L89.5296 137.753Z" fill="#5FCEB8"/>
<path d="M90.1313 103.064L88.4269 94.1413C88.1262 92.5372 87.9256 90.9331 87.7251 89.2287L84.6172 52.2339H83.7148L86.8228 89.2287C86.9231 90.8329 87.2238 92.5372 87.5246 94.1413L89.229 103.064L100.759 113.491L101.16 112.99L90.1313 103.064Z" fill="#3CAC96"/>
<path d="M88.8276 101.36L95.0436 135.949L95.9459 135.648L89.9305 102.362L88.8276 101.36Z" fill="#3CAC96"/>
<path d="M80.4061 93.7403C78.1002 90.131 75.8946 84.7171 75.9948 80.5063L76.7969 60.2544H75.8946L75.0925 80.5063C74.892 85.3187 77.5989 91.4343 80.6067 95.3444C81.6092 101.761 82.712 106.473 82.712 106.473L83.3136 106.974C83.1131 105.972 80.9074 94.4421 80.9074 94.4421L80.4061 93.7403Z" fill="#3CAC96"/>
<path d="M65.6682 69.3778L79.4034 68.9768C80.9073 68.9768 82.0101 67.6735 82.0101 66.2699L81.8096 56.8457C81.8096 55.3418 80.5062 54.239 79.1026 54.239L65.3674 54.64C63.8636 54.64 62.7607 55.9434 62.7607 57.347L62.9613 66.7711C62.9613 68.275 64.1643 69.3778 65.6682 69.3778Z" fill="#ED31A2"/>
<path d="M64.1645 67.0718L63.8638 56.9458C63.8638 56.5448 64.1645 56.244 64.4653 56.244L79.0026 55.843C79.4036 55.843 79.7044 56.1438 79.7044 56.4446L80.0052 66.5705C80.0052 66.9716 79.7044 67.2723 79.4036 67.2723L64.8663 67.6734C64.4653 67.7736 64.1645 67.4728 64.1645 67.0718Z" fill="white"/>
<path d="M80.9073 66.7711L80.6065 56.3444C80.6065 55.1413 79.604 54.239 78.4009 54.239H79.5037C80.7068 54.239 81.7094 55.1413 81.7094 56.3444L82.0101 66.7711C82.0101 67.9742 81.1078 68.9768 79.9047 68.9768H78.8019C80.005 68.9768 80.9073 67.9742 80.9073 66.7711Z" fill="#C41590"/>
<path d="M82.5117 37.1955C81.9102 36.4937 81.1081 35.8921 80.1056 35.4911C79.0027 35.0901 77.7997 34.7893 76.6968 34.7893C73.9899 34.8896 71.5837 35.4911 70.2804 37.1955C66.5709 39.5014 61.2572 42.5091 49.0259 42.8099L49.2264 46.5194C51.031 46.7199 52.7354 46.8202 54.54 46.7199C60.6557 46.5194 65.5683 43.6119 69.2778 42.0078L69.5786 52.5348L84.7174 52.1338L84.0156 45.216C85.1184 47.522 85.9205 50.1286 85.6197 52.3343C85.3189 54.4397 84.2161 56.0438 82.1107 57.3471C75.6943 61.4577 66.0696 58.9513 65.9693 58.9513L65.067 62.1595C65.3678 62.2597 68.8768 63.1621 73.3883 63.0618C76.6968 62.9615 80.6069 62.2597 83.8151 60.1543C86.7225 58.3497 88.3266 55.8433 88.8279 52.8356C89.8305 45.5168 82.8125 37.4962 82.5117 37.1955Z" fill="url(#paint4_linear)"/>
<path d="M84.7169 52.2339L84.0151 45.3162C83.7143 44.5141 83.4136 43.8123 83.1128 43.0103L83.8146 52.2339H84.7169Z" fill="#C41590"/>
<path d="M69.2775 41.3059C65.568 42.91 59.9536 46.1182 53.8379 46.3188C52.334 46.3188 50.8302 46.3188 49.2261 46.1182V46.5193C51.0307 46.7198 52.7351 46.82 54.5397 46.7198C60.2544 46.5193 65.6682 43.7121 69.2775 42.0077V41.3059Z" fill="#C41590"/>
<path d="M82.5113 37.1954C82.1103 36.6941 81.609 36.1929 80.9072 35.8921C81.208 36.1929 81.5087 36.3934 81.7092 36.6941C82.01 36.9949 89.028 45.1157 87.9252 52.5348C87.5241 55.5425 85.8198 58.0489 82.9123 59.8535C79.6038 61.9589 75.7941 62.6607 72.4856 62.761C69.1771 62.8612 66.3699 62.36 65.0666 62.0592L64.9663 62.36C65.2671 62.4602 68.7761 63.3625 73.2876 63.2623C76.5961 63.162 80.5062 62.4602 83.7144 60.3548C86.6218 58.5502 88.2259 56.0438 88.7272 53.0361C89.8301 45.5168 82.8121 37.4962 82.5113 37.1954Z" fill="#C41590"/>
<path fill-rule="evenodd" clip-rule="evenodd" d="M77.0975 23.4602H75.7942C74.3906 23.4602 73.1875 24.7635 73.1875 26.1671L73.4883 35.8921C73.5885 38.599 76.5962 42.6093 76.5962 42.6093C76.5962 42.6093 80.1052 38.599 80.005 35.6916L79.8045 26.0669C79.7042 24.6633 78.5011 23.4602 77.0975 23.4602Z" fill="white"/>
<path fill-rule="evenodd" clip-rule="evenodd" d="M79.8047 26.0669C79.8047 24.6633 78.5014 23.4602 77.0978 23.4602H76.396C77.6993 23.5605 78.8022 24.6633 78.9024 25.9666L79.2032 35.6916C79.3035 37.8972 77.6993 41.306 76.6968 42.6093C76.9975 43.0103 76.6968 42.6093 76.6968 42.6093C76.6968 42.6093 80.2058 38.599 80.1055 35.6916L79.8047 26.0669Z" fill="#5FCEB8"/>
<path fill-rule="evenodd" clip-rule="evenodd" d="M71.1823 26.869C71.1823 26.869 74.8918 29.5759 76.4959 24.9641C76.4959 24.9641 76.6965 28.8741 79.8044 29.5759C83.0126 30.2777 83.4137 20.4525 77.298 20.5528C71.1823 20.653 71.0821 24.7636 71.1823 26.869Z" fill="url(#paint5_linear)"/>
<path fill-rule="evenodd" clip-rule="evenodd" d="M114.393 55.0413L116.499 15.54H55.9434L36.293 34.5889V55.7431L67.7737 55.0413H114.393Z" fill="url(#paint6_linear)"/>
<path d="M59.9536 60.9562C61.658 61.658 63.4626 61.8585 65.167 62.3598L66.0693 59.1516C65.568 59.0513 65.0667 58.8508 64.5654 58.7506C62.6606 58.149 60.6554 59.1516 59.9536 60.9562Z" fill="white"/>
<path d="M62.5605 55.0411H37.0952V35.1902C37.0952 34.0874 37.9975 33.1851 39.1004 33.1851H60.5554C61.6582 33.1851 62.5605 34.0874 62.5605 35.1902V55.0411Z" fill="#3CAC96"/>
<path d="M42.3086 55.041C42.3086 56.7454 43.6119 58.0487 45.3163 58.0487H64.7662C66.4705 58.0487 67.7739 56.7454 67.7739 55.041H42.3086Z" fill="#3CAC96"/>
<path d="M61.1567 55.0411H35.6914V35.1902C35.6914 34.0874 36.5937 33.1851 37.6965 33.1851H59.1516C60.2544 33.1851 61.1567 34.0874 61.1567 35.1902V55.0411Z" fill="#5FCEB8"/>
<path d="M35.6914 55.041C35.6914 56.7454 36.9947 58.0487 38.6991 58.0487H58.149C59.8534 58.0487 61.1567 56.7454 61.1567 55.041H35.6914Z" fill="#3CAC96"/>
<path d="M120.602 71.1338L110.85 75.8374L113.419 81.1652L123.172 76.4616L120.602 71.1338Z" stroke="#F5ABAD" stroke-miterlimit="10" stroke-linecap="round" stroke-linejoin="round"/>
<path d="M118.08 65.7908L108.332 70.5041L110.896 75.8345L120.644 71.1211L118.08 65.7908Z" stroke="#F5ABAD" stroke-miterlimit="10" stroke-linecap="round" stroke-linejoin="round"/>
<path d="M121.412 72.6864L119.908 69.4781L120.81 69.0771C121.712 68.6761 122.715 68.9769 123.216 69.8792C123.617 70.7815 123.316 71.7841 122.414 72.2853L121.412 72.6864Z" stroke="#ED31A2" stroke-miterlimit="10" stroke-linecap="round" stroke-linejoin="round"/>
<path d="M101.059 40.6042C104.271 40.6042 106.874 38.0008 106.874 34.7893C106.874 31.5778 104.271 28.9744 101.059 28.9744C97.8476 28.9744 95.2441 31.5778 95.2441 34.7893C95.2441 38.0008 97.8476 40.6042 101.059 40.6042Z" stroke="#5FCEB8" stroke-miterlimit="10" stroke-linecap="round" stroke-linejoin="round"/>
<path d="M42.3086 88.7275C45.52 88.7275 48.1235 86.124 48.1235 82.9126C48.1235 79.7011 45.52 77.0977 42.3086 77.0977C39.0971 77.0977 36.4937 79.7011 36.4937 82.9126C36.4937 86.124 39.0971 88.7275 42.3086 88.7275Z" stroke="#5FCEB8" stroke-miterlimit="10" stroke-linecap="round" stroke-linejoin="round"/>
<path d="M60.355 110.383C62.4604 108.177 66.0696 108.177 68.175 110.283C70.3807 112.388 70.3807 115.997 68.2753 118.103" stroke="#5FCEB8" stroke-miterlimit="10" stroke-linecap="round" stroke-linejoin="round"/>
<path d="M64.3655 116.599C65.639 116.599 66.6714 115.566 66.6714 114.293C66.6714 113.019 65.639 111.987 64.3655 111.987C63.092 111.987 62.0596 113.019 62.0596 114.293C62.0596 115.566 63.092 116.599 64.3655 116.599Z" fill="url(#paint7_linear)"/>
<path d="M96.5478 60.9564C97.8767 60.9564 98.9539 59.8791 98.9539 58.5502C98.9539 57.2213 97.8767 56.144 96.5478 56.144C95.2189 56.144 94.1416 57.2213 94.1416 58.5502C94.1416 59.8791 95.2189 60.9564 96.5478 60.9564Z" fill="url(#paint8_linear)"/>
<path d="M101.059 30.6787V34.7893L104.668 37.0952" stroke="#5FCEB8" stroke-miterlimit="10" stroke-linecap="round" stroke-linejoin="round"/>
<path d="M47.9229 47.7224C48.975 47.7224 49.8278 46.8695 49.8278 45.8175C49.8278 44.7654 48.975 43.9126 47.9229 43.9126C46.8709 43.9126 46.0181 44.7654 46.0181 45.8175C46.0181 46.8695 46.8709 47.7224 47.9229 47.7224Z" fill="white"/>
<defs>
<linearGradient id="paint0_linear" x1="78" y1="156" x2="78" y2="44.46" gradientUnits="userSpaceOnUse">
<stop stop-color="#4F48AD"/>
<stop offset="1" stop-color="#1D185E"/>
</linearGradient>
<linearGradient id="paint1_linear" x1="82.4117" y1="23.2732" x2="82.4117" y2="18.5772" gradientUnits="userSpaceOnUse">
<stop stop-color="#F7C6B8"/>
<stop offset="1" stop-color="#EE6D93"/>
</linearGradient>
<linearGradient id="paint2_linear" x1="89.0789" y1="142.245" x2="89.0789" y2="135.728" gradientUnits="userSpaceOnUse">
<stop stop-color="#F7C6B8"/>
<stop offset="1" stop-color="#EE6D93"/>
</linearGradient>
<linearGradient id="paint3_linear" x1="97.6505" y1="126.135" x2="97.6505" y2="113.246" gradientUnits="userSpaceOnUse">
<stop stop-color="#F7C6B8"/>
<stop offset="1" stop-color="#EE6D93"/>
</linearGradient>
<linearGradient id="paint4_linear" x1="68.9773" y1="63.1496" x2="68.9773" y2="35.5529" gradientUnits="userSpaceOnUse">
<stop stop-color="#F7C6B8"/>
<stop offset="1" stop-color="#EE6D93"/>
</linearGradient>
<linearGradient id="paint5_linear" x1="76.6289" y1="29.6374" x2="76.6289" y2="20.7966" gradientUnits="userSpaceOnUse">
<stop stop-color="#F7C6B8"/>
<stop offset="1" stop-color="#EE6D93"/>
</linearGradient>
<linearGradient id="paint6_linear" x1="52.8805" y1="63.0241" x2="78.334" y2="41.1656" gradientUnits="userSpaceOnUse">
<stop stop-color="#3DE89B" stop-opacity="0.4"/>
<stop offset="1" stop-color="#3DE89B" stop-opacity="0"/>
</linearGradient>
<linearGradient id="paint7_linear" x1="64.3644" y1="112.171" x2="64.3644" y2="115.699" gradientUnits="userSpaceOnUse">
<stop stop-color="#F7C6B8"/>
<stop offset="1" stop-color="#EE6D93"/>
</linearGradient>
<linearGradient id="paint8_linear" x1="96.5467" y1="56.3357" x2="96.5467" y2="60.0171" gradientUnits="userSpaceOnUse">
<stop stop-color="#F7C6B8"/>
<stop offset="1" stop-color="#EE6D93"/>
</linearGradient>
</defs>
</svg>
