<svg width="156" height="156" viewBox="0 0 156 156" fill="none" xmlns="http://www.w3.org/2000/svg">
<path d="M78 156C121.078 156 156 121.078 156 78C156 34.9218 121.078 0 78 0C34.9218 0 0 34.9218 0 78C0 121.078 34.9218 156 78 156Z" fill="url(#paint0_linear)"/>
<path d="M40.504 47.0206L39.5015 40.8047C40.4038 40.8047 40.4038 41.8073 41.3061 41.8073C42.2084 41.8073 42.2084 40.8047 43.1107 40.8047C44.013 40.8047 44.013 41.8073 44.9153 41.8073C45.8177 41.8073 45.8177 40.8047 46.72 40.8047C47.6223 40.8047 47.6223 41.8073 48.5246 41.8073C49.4269 41.8073 49.4269 40.8047 50.3292 40.8047L49.3267 47.0206" stroke="#F8D632" stroke-width="0.5" stroke-miterlimit="10" stroke-linecap="square" stroke-linejoin="round"/>
<path d="M106.674 66.1697H137.553" stroke="#3DE89B" stroke-width="2" stroke-miterlimit="10" stroke-linecap="round" stroke-linejoin="round"/>
<path d="M93.4399 66.1697H101.26" stroke="#3DE89B" stroke-width="2" stroke-miterlimit="10" stroke-linecap="round" stroke-linejoin="round"/>
<path d="M113.692 72.887H126.926" stroke="#3DE89B" stroke-width="2" stroke-miterlimit="10" stroke-linecap="round" stroke-linejoin="round"/>
<path d="M88.9282 72.887H108.779" stroke="#3DE89B" stroke-width="2" stroke-miterlimit="10" stroke-linecap="round" stroke-linejoin="round"/>
<path d="M93.4399 79.6042H102.263" stroke="#ED31A2" stroke-width="2" stroke-miterlimit="10" stroke-linecap="round" stroke-linejoin="round"/>
<path d="M93.4399 86.2212H121.612" stroke="#3DE89B" stroke-width="2" stroke-miterlimit="10" stroke-linecap="round" stroke-linejoin="round"/>
<path d="M93.4399 92.9382H132.239" stroke="#3DE89B" stroke-width="2" stroke-miterlimit="10" stroke-linecap="round" stroke-linejoin="round"/>
<path d="M93.4399 98.0515H110.183" stroke="#3DE89B" stroke-width="2" stroke-miterlimit="10" stroke-linecap="round" stroke-linejoin="round"/>
<path fill-rule="evenodd" clip-rule="evenodd" d="M42.7095 54.1389H49.3265C56.7455 54.1389 62.8612 60.2546 62.8612 67.6736V117.702H29.1748V67.6736C29.1748 60.2546 35.1902 54.1389 42.7095 54.1389Z" fill="white"/>
<path fill-rule="evenodd" clip-rule="evenodd" d="M73.4884 70.4807C73.4884 70.4807 54.6401 84.9177 46.018 61.658C46.018 61.658 45.5167 81.7095 29.3753 85.7197C23.4601 87.2236 19.0488 74.2904 19.0488 64.4652C19.0488 52.1336 31.4807 47.0205 31.4807 47.0205C31.4807 47.0205 52.0334 47.0205 57.8483 47.0205C57.7481 47.0205 73.4884 49.3264 73.4884 70.4807Z" fill="url(#paint1_linear)"/>
<path fill-rule="evenodd" clip-rule="evenodd" d="M44.6146 34.1877C37.2959 34.1877 31.481 39.9024 31.481 47.0206C31.481 47.0206 52.0337 47.0206 57.8486 47.0206C57.7483 39.9024 51.9334 34.1877 44.6146 34.1877Z" fill="url(#paint2_linear)" fill-opacity="0.2"/>
<path d="M57.7483 87.5244C59.5201 87.5244 60.9565 86.088 60.9565 84.3161C60.9565 82.5443 59.5201 81.1079 57.7483 81.1079C55.9764 81.1079 54.54 82.5443 54.54 84.3161C54.54 86.088 55.9764 87.5244 57.7483 87.5244Z" fill="#22136B"/>
<path fill-rule="evenodd" clip-rule="evenodd" d="M62.8613 82.1106C62.8613 82.1106 66.2701 90.2314 69.378 91.635C72.486 93.0386 62.8613 94.0412 62.8613 94.0412V82.1106Z" fill="#ED31A2"/>
<path d="M57.4471 19.6504L56.4446 22.8587L54.1386 20.4525L48.6245 21.7558L58.55 32.4833L62.861 18.5476L57.4471 19.6504Z" fill="#3DE89B"/>
<path d="M57.4469 19.6504L56.4443 22.8586L54.1384 20.4524L51.5317 21.054L57.5472 27.4704L60.1538 19.0488L57.4469 19.6504Z" fill="#435466"/>
<path d="M103.064 22.7583C105.17 20.5526 108.779 20.5526 110.885 22.658C112.99 24.7634 113.09 28.3727 110.985 30.4781" stroke="#5FCEB8" stroke-miterlimit="10" stroke-linecap="round" stroke-linejoin="round"/>
<path d="M106.974 28.874C108.248 28.874 109.28 27.8416 109.28 26.5681C109.28 25.2946 108.248 24.2622 106.974 24.2622C105.701 24.2622 104.668 25.2946 104.668 26.5681C104.668 27.8416 105.701 28.874 106.974 28.874Z" fill="url(#paint3_linear)"/>
<path d="M79.2032 125.422C76.396 124.219 75.0926 120.91 76.2957 118.103C77.4988 115.296 80.8073 113.992 83.6145 115.195" stroke="#5FCEB8" stroke-miterlimit="10"/>
<path d="M81.3084 122.615C82.5819 122.615 83.6143 121.582 83.6143 120.309C83.6143 119.035 82.5819 118.003 81.3084 118.003C80.0348 118.003 79.0024 119.035 79.0024 120.309C79.0024 121.582 80.0348 122.615 81.3084 122.615Z" fill="url(#paint4_linear)"/>
<path d="M86.2937 30.017L80.6743 31.8643L84.0558 42.1506L89.6752 40.3033L86.2937 30.017Z" stroke="#3BA494" stroke-miterlimit="10" stroke-linecap="round" stroke-linejoin="round"/>
<path d="M80.6688 31.8266L75.0508 33.6782L78.4245 43.9672L84.0425 42.1156L80.6688 31.8266Z" stroke="#3BA494" stroke-miterlimit="10" stroke-linecap="round" stroke-linejoin="round"/>
<path d="M82.311 31.2801L79.0025 32.3829L78.7017 31.4806C78.4009 30.5783 78.9022 29.5757 79.8045 29.2749C80.7068 28.9742 81.7094 29.4755 82.0102 30.3778L82.311 31.2801Z" stroke="#3BA494" stroke-miterlimit="10" stroke-linecap="round" stroke-linejoin="round"/>
<path d="M54.9409 95.4447C61.0316 95.4447 65.9692 90.5072 65.9692 84.4165C65.9692 78.3257 61.0316 73.3882 54.9409 73.3882C48.8501 73.3882 43.9126 78.3257 43.9126 84.4165C43.9126 90.5072 48.8501 95.4447 54.9409 95.4447Z" fill="url(#paint5_linear)" stroke="#3DE89B" stroke-width="2" stroke-miterlimit="10" stroke-linecap="round" stroke-linejoin="round"/>
<path d="M143.568 33.4859C136.851 30.0771 136.951 39.802 130.234 43.311C123.517 46.82 121.411 44.1131 114.694 47.7224C108.077 51.2313 110.182 53.9383 103.566 57.5475C96.9486 61.0565 94.7429 58.3496 88.0257 61.8586C81.4087 65.3676 83.5141 68.0745 76.8971 71.6838C70.2802 75.1928 68.5758 71.8843 62.6606 76.1954V76.5964C64.6658 78.6015 65.9691 81.4087 65.9691 84.5167C65.9691 87.5244 64.766 90.2313 62.8612 92.2365C68.6761 95.1439 71.784 93.4396 78.2005 95.545C84.7172 97.6504 83.2133 100.658 89.7301 102.763C96.2468 104.869 97.7506 101.861 104.167 103.866C110.684 105.972 109.18 108.979 115.697 111.085C122.213 113.19 123.717 110.183 130.134 112.188C136.65 114.293 138.555 122.915 143.769 119.105L143.568 33.4859Z" fill="url(#paint6_linear)"/>
<path d="M43.9128 84.4165H29.3755" stroke="#3DE89B" stroke-width="2" stroke-miterlimit="10" stroke-linecap="round" stroke-linejoin="round"/>
<path d="M17.0439 118.704C16.9437 118.704 16.9437 118.704 16.8434 118.704C16.3421 118.604 15.9411 118.103 16.0413 117.501L26.1673 60.3546C26.2676 59.8533 26.7688 59.4523 27.3704 59.5526C27.8717 59.6528 28.2727 60.1541 28.1724 60.7557L18.0465 117.902C17.9462 118.403 17.5452 118.704 17.0439 118.704Z" fill="#3CAC96"/>
<path d="M27.9721 118.704C27.8719 118.704 27.8719 118.704 27.7716 118.704C27.2703 118.604 26.8693 118.103 26.9696 117.501L37.0955 60.3546C37.1958 59.8533 37.6971 59.4523 38.2986 59.5526C38.7999 59.6528 39.2009 60.1541 39.1007 60.7557L28.9747 117.902C28.8745 118.403 28.3732 118.704 27.9721 118.704Z" fill="#3CAC96"/>
<path d="M37.3963 64.4651H26.5685C25.9669 64.4651 25.5659 64.0641 25.5659 63.4625C25.5659 62.861 25.9669 62.46 26.5685 62.46H37.4965C38.0981 62.46 38.4991 62.861 38.4991 63.4625C38.4991 64.0641 37.9978 64.4651 37.3963 64.4651Z" fill="#3CAC96"/>
<path d="M36.1931 71.6836H25.3654C24.7638 71.6836 24.3628 71.2826 24.3628 70.681C24.3628 70.0795 24.7638 69.6785 25.3654 69.6785H36.2934C36.8949 69.6785 37.296 70.0795 37.296 70.681C37.296 71.2826 36.7947 71.6836 36.1931 71.6836Z" fill="#3CAC96"/>
<path d="M34.9902 79.0025H24.0621C23.4606 79.0025 23.0596 78.6014 23.0596 77.9999C23.0596 77.3983 23.4606 76.9973 24.0621 76.9973H34.9902C35.5917 76.9973 35.9927 77.3983 35.9927 77.9999C35.9927 78.6014 35.4914 79.0025 34.9902 79.0025Z" fill="#3CAC96"/>
<path d="M33.6864 86.221H22.7584C22.1569 86.221 21.7559 85.8199 21.7559 85.2184C21.7559 84.6168 22.1569 84.2158 22.7584 84.2158H33.6864C34.288 84.2158 34.689 84.6168 34.689 85.2184C34.689 85.8199 34.1877 86.221 33.6864 86.221Z" fill="#3CAC96"/>
<path d="M32.3832 93.5398H21.4552C20.8537 93.5398 20.4526 93.1388 20.4526 92.5372C20.4526 91.9357 20.8537 91.5347 21.4552 91.5347H32.3832C32.9848 91.5347 33.3858 91.9357 33.3858 92.5372C33.3858 93.1388 32.8845 93.5398 32.3832 93.5398Z" fill="#3CAC96"/>
<path d="M31.08 100.758H20.152C19.5504 100.758 19.1494 100.357 19.1494 99.7557C19.1494 99.1542 19.5504 98.7532 20.152 98.7532H31.08C31.6815 98.7532 32.0826 99.1542 32.0826 99.7557C32.0826 100.357 31.5813 100.758 31.08 100.758Z" fill="#3CAC96"/>
<path d="M29.7768 108.077H18.8488C18.2472 108.077 17.8462 107.676 17.8462 107.074C17.8462 106.473 18.2472 106.072 18.8488 106.072H29.7768C30.3783 106.072 30.7794 106.473 30.7794 107.074C30.7794 107.676 30.2781 108.077 29.7768 108.077Z" fill="#3CAC96"/>
<path d="M28.5737 115.295H17.6456C17.0441 115.295 16.6431 114.894 16.6431 114.293C16.6431 113.691 17.0441 113.29 17.6456 113.29H28.5737C29.1752 113.29 29.5762 113.691 29.5762 114.293C29.5762 114.894 29.0749 115.295 28.5737 115.295Z" fill="#3CAC96"/>
<path d="M106.974 127.527C110.352 127.527 113.09 124.789 113.09 121.411C113.09 118.034 110.352 115.296 106.974 115.296C103.596 115.296 100.858 118.034 100.858 121.411C100.858 124.789 103.596 127.527 106.974 127.527Z" stroke="#5FCEB8" stroke-miterlimit="10"/>
<defs>
<linearGradient id="paint0_linear" x1="78" y1="156" x2="78" y2="44.46" gradientUnits="userSpaceOnUse">
<stop stop-color="#4F48AD"/>
<stop offset="1" stop-color="#1D185E"/>
</linearGradient>
<linearGradient id="paint1_linear" x1="91.1005" y1="54.8703" x2="68.735" y2="82.6087" gradientUnits="userSpaceOnUse">
<stop stop-color="#F7C6B8"/>
<stop offset="1" stop-color="#EE6D93"/>
</linearGradient>
<linearGradient id="paint2_linear" x1="41.7285" y1="33.919" x2="41.9093" y2="47.8667" gradientUnits="userSpaceOnUse">
<stop stop-color="#158772"/>
<stop offset="1" stop-color="#5FCEB8"/>
</linearGradient>
<linearGradient id="paint3_linear" x1="110.772" y1="25.1948" x2="108.074" y2="27.5813" gradientUnits="userSpaceOnUse">
<stop stop-color="#F7C6B8"/>
<stop offset="1" stop-color="#EE6D93"/>
</linearGradient>
<linearGradient id="paint4_linear" x1="85.1063" y1="118.935" x2="82.4078" y2="121.322" gradientUnits="userSpaceOnUse">
<stop stop-color="#F7C6B8"/>
<stop offset="1" stop-color="#EE6D93"/>
</linearGradient>
<linearGradient id="paint5_linear" x1="54.8964" y1="95.1445" x2="55.1037" y2="70.0609" gradientUnits="userSpaceOnUse">
<stop stop-color="#5FCEB8"/>
<stop offset="1" stop-color="#3DE89B" stop-opacity="0"/>
</linearGradient>
<linearGradient id="paint6_linear" x1="62.72" y1="76.3402" x2="143.873" y2="76.3402" gradientUnits="userSpaceOnUse">
<stop stop-color="#3DE89B" stop-opacity="0.4"/>
<stop offset="1" stop-color="#3DE89B" stop-opacity="0"/>
</linearGradient>
</defs>
</svg>
